<?xml version="1.0" encoding="utf-8"?>
<!-- Generator: Adobe Illustrator 16.0.0, SVG Export Plug-In . SVG Version: 6.00 Build 0)  -->
<!DOCTYPE svg PUBLIC "-//W3C//DTD SVG 1.1//EN" "http://www.w3.org/Graphics/SVG/1.1/DTD/svg11.dtd">
<svg version="1.1" xmlns="http://www.w3.org/2000/svg" xmlns:xlink="http://www.w3.org/1999/xlink" x="0px" y="0px" width="500px"
	 height="500px" viewBox="0 0 500 500" enable-background="new 0 0 500 500" xml:space="preserve">
<g id="Background">
	<rect fill="#E7EBF6" width="500" height="500"/>
	<g>
		<path fill="#FFFFFF" d="M286.833,36l75.856,391.666h30.144V468h-22.332h-240h-22.332v-40.334h30.209L214.868,36H286.833
			 M306.631,12h-19.798h-71.965h-19.766l-3.789,19.4l-72.701,372.266h-10.443h-24v24V468v24h24h22.332h240h22.332h24v-24v-40.334
			v-24h-24h-10.346L310.396,31.437L306.631,12L306.631,12z"/>
	</g>
</g>
<g id="Pylon">
	<polygon fill="#EB4F3A" points="214.367,34 130,466 370,466 286.332,34 	"/>
	<polygon fill="#F47A5C" points="227.001,40.333 231.001,40.333 175.001,425.666 147.001,425.666 	"/>
	<rect x="107.668" y="425.666" fill="#EC4F3A" width="284.664" height="40.334"/>
	<path fill="#A73629" d="M241.334,372.001c0,19.33-15.67,35-35,35s-35-15.67-35-35s15.67-35,35-35S241.334,352.671,241.334,372.001z
		 M293.666,337.001c-19.33,0-35,15.67-35,35s15.67,35,35,35s35-15.67,35-35S312.996,337.001,293.666,337.001z"/>
	<circle fill="#FFFFFF" cx="206.834" cy="366.667" r="35"/>
	<circle fill="#FFFFFF" cx="294.166" cy="366.667" r="35"/>
	<circle fill="#000502" cx="223.333" cy="366.668" r="15.667"/>
	<circle fill="#000502" cx="309.834" cy="366.668" r="15.666"/>
	<polygon fill="#6C59A6" points="281.5,40.333 284.335,40.333 359.001,425.666 351.001,425.666 	"/>
	<path opacity="0.3" fill="#A73629" d="M138.352,425.666H362.65c0,0-42.808-5.916-113.436-5.916S138.352,425.666,138.352,425.666z"
		/>
	<rect x="107.668" y="460" opacity="0.4" fill="#A73629" width="284.664" height="6"/>
	<polygon fill="#F47A5C" points="107.668,440.5 112,431.5 250,425.666 107.668,425.666 	"/>
	<polygon fill="#6C59A6" points="392.332,440.666 392.332,425.666 306.166,425.666 384.738,430.554 	"/>
	<polygon opacity="0.8" fill="#FFFFFF" points="227.001,40.333 231.001,40.333 203.001,232.999 181.019,261.815 	"/>
</g>
</svg>
